# xmcd
#
# Track frame offsets: 
#        150
#        20445
#        41895
#        62370
#        82807
#        102642
#        123420
#        145192
#        164892
#        180880
#
# Disc length: 2717 seconds
#
# Revision: 0
# Processed by: cddbd v1.5.2PL0 Copyright (c) Steve Scherf et al.
# Submitted via: ExactAudioCopyFreeDBPlugin 1.0
#
DISCID=810a9b0a
DTITLE=山风点火 - 无法忘记
DYEAR=1900
DGENRE=
TTITLE0=无法忘记
TTITLE1=从此不再放你走
TTITLE2=靠山
TTITLE3=爱需要勇气
TTITLE4=蓝的心
TTITLE5=不解风情
TTITLE6=天生Partner
TTITLE7=再见是愉快的
TTITLE8=Sha la la
TTITLE9=不能不爱
EXTD=
EXTT0=
EXTT1=
EXTT2=
EXTT3=
EXTT4=
EXTT5=
EXTT6=
EXTT7=
EXTT8=
EXTT9=
PLAYORDER=
